<?xml version="1.0" encoding="UTF-8"?>
<svg id="Layer_2" data-name="Layer 2" xmlns="http://www.w3.org/2000/svg" viewBox="0 0 50 56.18">
  <defs>
    <style>
      .cls-1 {
        fill: #cbe8f9;
        stroke: #4f2670;
        stroke-miterlimit: 10;
      }

      .cls-1, .cls-2, .cls-3, .cls-4, .cls-5 {
        fill-rule: evenodd;
      }

      .cls-2 {
        fill: #2a286b;
      }

      .cls-2, .cls-3, .cls-4, .cls-5 {
        stroke-width: 0px;
      }

      .cls-3 {
        fill: #87cdea;
      }

      .cls-4 {
        fill: #d7d7d7;
      }

      .cls-5 {
        fill: #939598;
      }
    </style>
  </defs>
  <g id="Layer_1-2" data-name="Layer 1">
    <g>
      <polygon class="cls-1" points="42.62 2.32 17.01 21.8 24.46 22.32 5.37 52.32 37.03 19.69 30.51 19.69 42.62 2.32"/>
      <path class="cls-4" d="M19.07,24.33c-1.86-.1-3.72-.2-5.58-.3l-2.97-.16,2.47-1.88,11.22-8.53c-1.54-1.88-4.29-2.95-7.35-2.49-4.3.65-7.38,3.98-6.87,7.43.11.75.44,1.41.84,2.03-.03.03-.04.06-.07.09C3.95,22.94-.67,27.86.08,32.97c.55,3.77,6.12,6.21,10.12,3.51"/>
      <path class="cls-3" d="M11.89,40.22c3.52-5.56,6.7-11.17,10.22-16.74-1.86-.1-3.72-.2-5.58-.3l-2.97-.16,2.47-1.88,11.22-8.53c-1.54-1.88-4.29-2.95-7.35-2.49-4.3.65-7.38,3.98-6.87,7.43.11.75.44,1.41.84,2.03-.03.03-.04.06-.07.09-6.8,2.4-11.42,7.32-10.68,12.43.55,3.77,4.19,6.73,8.77,8.1h0Z"/>
      <path class="cls-5" d="M40.43,15.31c5.37.27,9.2,1.88,9.55,4.25h0c.22,1.49-1.09,3.03-3.27,4.45,2,1.32,3.24,3.15,3.24,5.18,0,4.04-4.91,7.31-10.97,7.31-.35,0-.65-.12-.99-.14-2.69,3.06-7.35,6.33-12.31,6.33-2.54,0-3.59-1.47-4.46-2.14-.3-.23-.3-.72-.01-.96l20.57-16.98,1.87-2.02"/>
      <path class="cls-2" d="M45.8,17.61c.22,1.49-1.09,3.03-3.27,4.45,2,1.32,3.24,3.15,3.24,5.18,0,4.04-4.91,7.31-10.97,7.31-.35,0-.65-.12-.99-.14-2.69,3.06-6.97,5.52-12.31,6.33-1.19.18-2.36.25-3.5.26l19.6-20.35,1.87-2.02h-6.79c1.19-1.58,2.38-3.49,3.57-5.28,5.37.27,9.2,1.88,9.55,4.25h0Z"/>
    </g>
  </g>
</svg>